<?xml version="1.0" encoding="UTF-8" standalone="no"?>
<!-- Created with Inkscape (http://www.inkscape.org/) -->

<svg
   xmlns:dc="http://purl.org/dc/elements/1.1/"
   xmlns:cc="http://creativecommons.org/ns#"
   xmlns:rdf="http://www.w3.org/1999/02/22-rdf-syntax-ns#"
   xmlns:svg="http://www.w3.org/2000/svg"
   xmlns="http://www.w3.org/2000/svg"
   xmlns:sodipodi="http://sodipodi.sourceforge.net/DTD/sodipodi-0.dtd"
   xmlns:inkscape="http://www.inkscape.org/namespaces/inkscape"
   width="500"
   height="500"
   viewBox="0 0 132.29166 132.29167"
   version="1.1"
   id="svg8"
   inkscape:version="0.92.1 r15371"
   sodipodi:docname="favicon.svg"
   inkscape:export-filename="/home/dobby/works-handy/mashinman/static/favicon.png"
   inkscape:export-xdpi="95.999992"
   inkscape:export-ydpi="95.999992">
  <defs
     id="defs2" />
  <sodipodi:namedview
     id="base"
     pagecolor="#ffffff"
     bordercolor="#666666"
     borderopacity="1.0"
     inkscape:pageopacity="0.0"
     inkscape:pageshadow="2"
     inkscape:zoom="0.98994949"
     inkscape:cx="239.45009"
     inkscape:cy="221.33891"
     inkscape:document-units="mm"
     inkscape:current-layer="layer1"
     showgrid="false"
     units="px"
     inkscape:window-width="1920"
     inkscape:window-height="1028"
     inkscape:window-x="0"
     inkscape:window-y="26"
     inkscape:window-maximized="1" />
  <metadata
     id="metadata5">
    <rdf:RDF>
      <cc:Work
         rdf:about="">
        <dc:format>image/svg+xml</dc:format>
        <dc:type
           rdf:resource="http://purl.org/dc/dcmitype/StillImage" />
        <dc:title></dc:title>
      </cc:Work>
    </rdf:RDF>
  </metadata>
  <g
     inkscape:label="Layer 1"
     inkscape:groupmode="layer"
     id="layer1"
     transform="translate(0,-164.70832)">
    <path
       style="fill:#2b2200;stroke-width:1"
       d="m 19.579631,287.19929 c -3.331948,-1.44768 -3.190581,0.98696 -3.190581,-54.94852 0,-54.49973 -0.07201,-52.99369 2.62787,-54.88481 1.031475,-0.72248 3.041839,-0.83749 14.640717,-0.83749 h 13.445089 l 0.538117,-1.54363 c 0.314314,-0.90168 1.096674,-1.75604 1.881169,-2.05429 1.936876,-0.7364 28.607792,-0.67137 30.243126,0.0737 0.705378,0.3214 1.513107,1.24583 1.794947,2.05429 l 0.512398,1.46992 h 13.567046 c 12.889971,0 13.633701,0.0524 14.902551,1.0505 0.7345,0.57777 1.57327,1.90663 1.86389,2.95301 0.56404,2.03096 0.76205,49.7891 0.21487,51.83017 -0.35827,1.33643 -2.09592,2.04406 -2.94227,1.1982 -0.42237,-0.42213 -0.66329,-8.06929 -0.84705,-26.88503 l -0.25678,-26.29509 -13.512712,-0.13704 -13.512697,-0.13704 0.159944,1.93449 0.159942,1.93448 10.499836,0.13936 c 8.862077,0.11763 10.644447,0.27022 11.426917,0.97835 0.8683,0.78578 0.92709,2.34622 0.92709,24.60578 v 23.76676 l -1.1164,0.35432 c -2.41043,0.76506 -2.4786,0.11181 -2.4786,-23.75067 V 187.8269 h -9.757812 c -9.142209,0 -9.757812,0.0598 -9.757812,0.94752 0,0.52116 -0.426508,1.33353 -0.947776,1.80528 -0.848278,0.76768 -2.558712,0.84343 -16.295463,0.72155 l -15.347685,-0.13607 -1.037511,-1.64931 -1.03751,-1.64933 -9.372631,-0.0198 -9.372649,-0.0198 v 44.42377 44.42374 H 46.92842 c 17.977051,0 18.748483,0.0398 19.257833,0.99148 0.400536,0.74841 0.333026,1.18906 -0.275396,1.79748 -0.703514,0.70352 -3.243339,0.80603 -19.971286,0.80603 -18.104092,0 -19.232406,-0.0544 -20.377702,-0.98167 L 24.34945,278.30616 24.212995,232.6326 c -0.136457,-45.64167 -0.13568,-45.67456 0.936032,-47.03709 l 1.072507,-1.36349 H 36.712441 47.20333 v -2.06295 -2.06295 l -13.224411,0.13704 -13.22439,0.13704 -0.130827,51.30132 c -0.09569,37.48041 0.02504,51.48924 0.448053,51.99888 0.471287,0.56787 4.669117,0.69759 22.574019,0.69759 20.288221,0 22.033535,0.0687 22.490633,0.88549 0.314353,0.56172 0.317071,1.21892 0.0078,1.79749 -0.456244,0.8525 -1.935771,0.9107 -22.681885,0.89191 -18.069037,-0.0156 -22.507598,-0.15645 -23.882132,-0.75365 z M 78.017359,181.92096 v -5.90604 H 64.664567 51.311756 v 5.90604 5.90606 h 13.352811 13.352792 z m 14.893519,105.53069 c -6.944203,-1.20367 -13.597015,-5.76929 -17.387768,-11.93266 -0.651475,-1.05923 -1.223424,-1.92636 -1.270999,-1.92696 -0.04756,-5.1e-4 -0.0097,1.50159 0.08579,3.33817 l 0.172172,3.33929 h -2.098101 -2.098099 v -7.70353 -7.70353 h 7.703541 7.703541 v 1.79749 1.79748 h -4.365324 c -5.04935,0 -5.116471,0.0926 -3.038771,4.19275 2.879003,5.68143 9.230953,10.14459 16.037515,11.26867 3.000611,0.49552 4.187738,0.45211 7.444085,-0.27237 6.79773,-1.51235 11.88089,-5.6237 14.93944,-12.08328 1.45459,-3.07203 1.59103,-3.80625 1.57918,-8.49824 -0.0175,-7.13884 -1.20607,-10.04976 -6.09857,-14.94223 -4.33272,-4.33274 -7.67892,-5.85747 -13.701961,-6.24343 -6.219939,-0.39859 -10.97419,1.31875 -15.723706,5.67973 -2.437435,2.23802 -3.922318,2.3418 -4.161009,0.29074 -0.122674,-1.05331 0.371886,-1.80552 2.311053,-3.51569 12.185832,-10.74673 31.717203,-6.84893 38.870183,7.7572 8.98077,18.3384 -6.64136,38.87226 -26.902136,35.3604 z M 34.009335,267.61726 c -0.177411,-0.4621 -0.08715,-1.21319 0.20024,-1.6691 0.458727,-0.72757 2.400068,-0.84567 15.873982,-0.96558 13.787198,-0.12268 15.41475,-0.05 15.973422,0.71289 0.433049,0.59141 0.466571,1.14009 0.110247,1.80575 -0.481923,0.90046 -1.424711,0.95618 -16.17366,0.95618 -14.026297,0 -15.695581,-0.0878 -15.984312,-0.84014 z m 0.739812,-8.9588 c -1.195395,-0.69625 -1.143317,-2.35969 0.09472,-3.02221 1.066665,-0.57086 29.108525,-0.77273 30.549133,-0.2199 1.071285,0.41108 1.071285,3.074 0,3.48508 -1.421101,0.54533 -29.674963,0.3213 -30.64376,-0.24297 z m -0.358531,-9.94138 c -0.343779,-0.41419 -0.545007,-1.16864 -0.447199,-1.67652 0.166543,-0.86516 1.181965,-0.92341 16.091458,-0.92341 h 15.913619 v 1.54071 1.54071 l -15.46644,0.13587 c -13.080715,0.1149 -15.562832,0.0196 -16.091438,-0.6173 z m 12.617076,-13.14579 c -1.768821,-0.5296 -3.735648,-2.27837 -4.745382,-4.21926 -0.637925,-1.22623 -1.042751,-1.41233 -3.072119,-1.41233 -1.898676,0 -2.619155,-0.28177 -3.8386,-1.50121 -1.468598,-1.4686 -1.501188,-1.6183 -1.501188,-6.89377 0,-5.03091 0.08774,-5.49696 1.30951,-6.94884 1.159058,-1.37747 1.67268,-1.57376 4.470295,-1.70851 l 3.160786,-0.15219 4.223977,-5.90565 c 2.662324,-3.72228 4.75957,-6.13456 5.672698,-6.52485 2.317652,-0.99057 21.887569,-0.8906 23.96816,0.12248 1.038015,0.50543 3.094441,2.85342 5.734851,6.54802 l 4.116501,5.76005 2.816676,0.138 c 5.361665,0.26284 6.154875,1.41151 6.154875,8.91305 0,5.00849 -0.04154,5.19259 -1.501208,6.65225 -1.264963,1.26496 -1.911507,1.50119 -4.108561,1.50119 -1.947748,0 -2.607355,0.19042 -2.607355,0.75249 0,1.50099 -3.024213,4.24688 -5.31176,4.82288 -3.709191,0.93398 -7.032947,-0.6254 -8.873373,-4.16305 l -0.734746,-1.41232 h -7.947143 c -6.637865,0 -7.947142,0.12404 -7.947142,0.75249 0,1.5193 -3.025049,4.24707 -5.362674,4.83571 -1.25518,0.31604 -2.353115,0.55478 -2.43988,0.5305 -0.08677,-0.0243 -0.82351,-0.24347 -1.637198,-0.48711 z m 4.846335,-4.52442 c 1.69275,-1.37071 1.584809,-3.99401 -0.22852,-5.55378 -2.197695,-1.89037 -4.48033,-1.42328 -5.879128,1.20304 -0.845134,1.5868 -0.749013,2.3988 0.466957,3.94467 1.290585,1.6407 3.885303,1.8275 5.640691,0.40607 z m 30.814164,0 c 1.692752,-1.37071 1.584809,-3.99401 -0.228539,-5.55378 -2.197676,-1.89037 -4.480311,-1.42328 -5.879109,1.20304 -0.845133,1.5868 -0.749013,2.3988 0.466958,3.94467 1.290585,1.6407 3.885302,1.8275 5.64069,0.40607 z m -40.05721,-6.34981 c 1.196307,-2.42825 3.137396,-3.62831 6.240029,-3.85778 3.248075,-0.24024 5.515823,0.93667 7.153661,3.71259 l 1.057813,1.79285 7.781203,-0.0117 7.781203,-0.0117 0.800256,-1.62432 c 1.196308,-2.42828 3.137397,-3.62831 6.240028,-3.8578 3.318865,-0.24547 5.638672,1.00102 6.939428,3.72875 0.809631,1.69778 1.015499,1.81465 2.946397,1.67262 l 2.075952,-0.15276 v -4.62212 -4.62213 H 64.664567 37.702163 l -0.151401,4.06317 c -0.08327,2.23473 -0.03281,4.37246 0.112193,4.7505 0.157225,0.40964 1.048419,0.68265 2.205769,0.6757 1.663732,-0.01 2.05666,-0.2444 2.742257,-1.63599 z m 19.999296,-16.58405 v -4.87892 h -4.275803 c -3.786445,0 -4.393779,0.13219 -5.306461,1.15553 -1.149625,1.28894 -5.824819,8.00707 -5.824819,8.37012 0,0.12772 3.466599,0.23217 7.703542,0.23217 h 7.703541 z m 18.827969,4.13881 c -0.376972,-0.98236 -5.546569,-8.14332 -6.226287,-8.6247 -0.29304,-0.20752 -2.323863,-0.38084 -4.512959,-0.38516 l -3.980162,-0.008 v 4.8789 4.87892 h 7.501711 c 6.320854,0 7.456989,-0.11647 7.217697,-0.74009 z"
       id="path4577"
       inkscape:connector-curvature="0" />
    <path
       style="fill:#ffcc00;stroke-width:1"
       d="m 19.312361,287.19929 c -3.331948,-1.44768 -3.190581,0.98696 -3.190581,-54.94852 0,-54.49973 -0.07201,-52.99369 2.62787,-54.88481 1.031475,-0.72248 3.041839,-0.83749 14.640717,-0.83749 h 13.445091 l 0.538114,-1.54363 c 0.314315,-0.90168 1.096675,-1.75604 1.881169,-2.05429 1.936877,-0.7364 28.607793,-0.67137 30.243127,0.0737 0.705379,0.3214 1.513107,1.24583 1.794946,2.05429 l 0.5124,1.46992 h 13.567045 c 12.889971,0 13.633701,0.0524 14.902551,1.0505 0.7345,0.57777 1.57327,1.90663 1.8639,2.95301 0.56403,2.03096 0.76205,49.7891 0.21487,51.83017 -0.35828,1.33643 -2.09593,2.04406 -2.94228,1.1982 -0.42237,-0.42213 -0.66329,-8.06929 -0.84705,-26.88503 l -0.25678,-26.29509 -13.512711,-0.13704 -13.512697,-0.13704 0.159943,1.93449 0.159943,1.93448 10.499836,0.13936 c 8.862076,0.11763 10.644446,0.27022 11.426916,0.97835 0.8683,0.78578 0.92709,2.34622 0.92709,24.60578 v 23.76676 l -1.1164,0.35432 c -2.41043,0.76506 -2.4786,0.11181 -2.4786,-23.75067 V 187.8269 h -9.75781 c -9.142212,0 -9.757812,0.0598 -9.757812,0.94752 0,0.52116 -0.426509,1.33353 -0.947778,1.80528 -0.848278,0.76768 -2.558711,0.84343 -16.295462,0.72155 l -15.347686,-0.13607 -1.03751,-1.64931 -1.037511,-1.64933 -9.372631,-0.0198 -9.372649,-0.0198 v 44.42377 44.42374 H 46.66115 c 17.977051,0 18.748484,0.0398 19.257833,0.99148 0.400537,0.74841 0.333026,1.18906 -0.275394,1.79748 -0.703517,0.70352 -3.24334,0.80603 -19.971287,0.80603 -18.104093,0 -19.232407,-0.0544 -20.377703,-0.98167 L 24.08218,278.30616 23.945725,232.6326 c -0.136457,-45.64167 -0.13568,-45.67456 0.936032,-47.03709 l 1.072507,-1.36349 H 36.445171 46.93606 v -2.06295 -2.06295 l -13.224411,0.13704 -13.22439,0.13704 -0.130827,51.30132 c -0.09569,37.48041 0.02504,51.48924 0.448053,51.99888 0.471287,0.56787 4.669117,0.69759 22.574019,0.69759 20.288221,0 22.033535,0.0687 22.490634,0.88549 0.314351,0.56172 0.317071,1.21892 0.0078,1.79749 -0.456245,0.8525 -1.935771,0.9107 -22.681885,0.89191 -18.069032,-0.0156 -22.507593,-0.15645 -23.882127,-0.75365 z M 77.750089,181.92096 v -5.90604 H 64.397298 51.044486 v 5.90604 5.90606 h 13.352812 13.352791 z m 14.89352,105.53069 c -6.944204,-1.20367 -13.597014,-5.76929 -17.387769,-11.93266 -0.651475,-1.05923 -1.223422,-1.92636 -1.271,-1.92696 -0.04756,-5.3e-4 -0.0097,1.50159 0.08579,3.33817 l 0.172173,3.33929 h -2.0981 -2.098098 v -7.70353 -7.70353 h 7.703539 7.703542 v 1.79749 1.79748 H 81.08836 c -5.049348,0 -5.11647,0.0926 -3.038768,4.19275 2.879002,5.68143 9.230952,10.14459 16.037515,11.26867 3.00061,0.49552 4.187737,0.45211 7.444083,-0.27237 6.79773,-1.51235 11.88089,-5.6237 14.93945,-12.08328 1.45459,-3.07203 1.59103,-3.80625 1.57918,-8.49824 -0.0175,-7.13884 -1.20607,-10.04976 -6.09857,-14.94223 -4.33273,-4.33274 -7.67893,-5.85747 -13.70197,-6.24343 -6.219938,-0.39859 -10.974191,1.31875 -15.723706,5.67973 -2.437437,2.23802 -3.922318,2.3418 -4.161009,0.29074 -0.122674,-1.05331 0.371885,-1.80552 2.311053,-3.51569 12.185833,-10.74673 31.717202,-6.84893 38.870192,7.7572 8.98077,18.3384 -6.64137,38.87226 -26.902146,35.3604 z M 33.742065,267.61726 c -0.177411,-0.4621 -0.08715,-1.21319 0.20024,-1.6691 0.458727,-0.72757 2.400068,-0.84567 15.873983,-0.96558 13.787196,-0.12268 15.414749,-0.05 15.973422,0.71289 0.433049,0.59141 0.466572,1.14009 0.110247,1.80575 -0.481923,0.90046 -1.424713,0.95618 -16.173662,0.95618 -14.026296,0 -15.69558,-0.0878 -15.984311,-0.84014 z m 0.739812,-8.9588 c -1.195395,-0.69625 -1.143317,-2.35969 0.09472,-3.02221 1.066665,-0.57086 29.108525,-0.77273 30.549133,-0.2199 1.071285,0.41108 1.071285,3.074 0,3.48508 -1.421101,0.54533 -29.674963,0.3213 -30.64376,-0.24297 z m -0.358531,-9.94138 c -0.343779,-0.41419 -0.545007,-1.16864 -0.447199,-1.67652 0.166543,-0.86516 1.181965,-0.92341 16.091457,-0.92341 h 15.913622 v 1.54071 1.54071 l -15.466441,0.13587 c -13.080716,0.1149 -15.562833,0.0196 -16.091439,-0.6173 z m 12.617076,-13.14579 c -1.768822,-0.5296 -3.735647,-2.27837 -4.745382,-4.21926 -0.637925,-1.22623 -1.042751,-1.41233 -3.072119,-1.41233 -1.898676,0 -2.619155,-0.28177 -3.8386,-1.50121 -1.468598,-1.4686 -1.501188,-1.6183 -1.501188,-6.89377 0,-5.03091 0.08774,-5.49696 1.30951,-6.94884 1.159058,-1.37747 1.67268,-1.57376 4.470295,-1.70851 l 3.160786,-0.15219 4.223977,-5.90565 c 2.662324,-3.72228 4.759571,-6.13456 5.672698,-6.52485 2.317652,-0.99057 21.887569,-0.8906 23.96816,0.12248 1.038016,0.50543 3.094442,2.85342 5.734851,6.54802 l 4.116502,5.76005 2.816674,0.138 c 5.361668,0.26284 6.154875,1.41151 6.154875,8.91305 0,5.00849 -0.04154,5.19259 -1.501206,6.65225 -1.264962,1.26496 -1.911508,1.50119 -4.108561,1.50119 -1.947749,0 -2.607355,0.19042 -2.607355,0.75249 0,1.50099 -3.024214,4.24688 -5.311762,4.82288 -3.709191,0.93398 -7.032945,-0.6254 -8.873371,-4.16305 l -0.734747,-1.41232 h -7.947142 c -6.637867,0 -7.947144,0.12404 -7.947144,0.75249 0,1.5193 -3.025047,4.24707 -5.362673,4.83571 -1.25518,0.31604 -2.353114,0.55478 -2.439879,0.5305 -0.08677,-0.0243 -0.82351,-0.24347 -1.637199,-0.48711 z m 4.846336,-4.52442 c 1.692748,-1.37071 1.584809,-3.99401 -0.228521,-5.55378 -2.197695,-1.89037 -4.48033,-1.42328 -5.879129,1.20304 -0.845132,1.5868 -0.749011,2.3988 0.466958,3.94467 1.290585,1.6407 3.885303,1.8275 5.640692,0.40607 z m 30.814163,0 c 1.692751,-1.37071 1.584809,-3.99401 -0.228539,-5.55378 -2.197674,-1.89037 -4.480311,-1.42328 -5.879108,1.20304 -0.845135,1.5868 -0.749014,2.3988 0.466958,3.94467 1.290585,1.6407 3.8853,1.8275 5.640689,0.40607 z m -40.05721,-6.34981 c 1.196308,-2.42825 3.137397,-3.62831 6.240029,-3.85778 3.248075,-0.24024 5.515824,0.93667 7.153661,3.71259 l 1.057815,1.79285 7.781202,-0.0117 7.781203,-0.0117 0.800256,-1.62432 c 1.196308,-2.42828 3.137397,-3.62831 6.240029,-3.8578 3.318864,-0.24547 5.63867,1.00102 6.939428,3.72875 0.80963,1.69778 1.015497,1.81465 2.946395,1.67262 l 2.075952,-0.15276 v -4.62213 -4.62213 H 64.397298 37.434893 l -0.151401,4.06317 c -0.08327,2.23473 -0.03281,4.37246 0.112193,4.7505 0.157225,0.40964 1.048419,0.68265 2.205769,0.6757 1.663732,-0.01 2.05666,-0.2444 2.742257,-1.63599 z m 19.999296,-16.58405 v -4.87892 h -4.275802 c -3.786447,0 -4.393779,0.13219 -5.306462,1.15553 -1.149625,1.28894 -5.824818,8.00707 -5.824818,8.37012 0,0.12772 3.466597,0.23217 7.703542,0.23217 h 7.70354 z m 18.827969,4.13881 c -0.376973,-0.98236 -5.546568,-8.14332 -6.226286,-8.6247 -0.293042,-0.20752 -2.323864,-0.38084 -4.512961,-0.38516 l -3.980161,-0.008 v 4.87889 4.87893 h 7.501713 c 6.320853,0 7.456987,-0.11647 7.217695,-0.74009 z"
       id="path4577-6"
       inkscape:connector-curvature="0" />
  </g>
</svg>
