<?xml version="1.0" standalone="no"?>
<!DOCTYPE svg PUBLIC "-//W3C//DTD SVG 20010904//EN"
 "http://www.w3.org/TR/2001/REC-SVG-20010904/DTD/svg10.dtd">
<svg version="1.0" xmlns="http://www.w3.org/2000/svg"
 width="500.000000pt" height="500.000000pt" viewBox="0 0 500.000000 500.000000"
 preserveAspectRatio="xMidYMid meet">
<metadata>
Created by potrace 1.11, written by Peter Selinger 2001-2013
</metadata>
<g transform="translate(0.000000,500.000000) scale(0.100000,-0.100000)"
fill="#000000" stroke="none">
<path d="M2009 4706 c-2 -3 -31 -5 -64 -7 -33 -1 -71 -6 -85 -11 -28 -9 -80
-81 -80 -110 0 -10 -3 -18 -7 -19 -5 0 -223 -2 -485 -4 -519 -3 -558 -7 -607
-56 -36 -35 -49 -87 -58 -230 -10 -144 -10 -3486 -1 -3633 10 -157 25 -213 62
-241 64 -48 94 -50 961 -50 640 0 815 3 832 13 47 26 38 94 -14 106 -15 4
-230 9 -478 11 -1109 11 -1151 12 -1172 23 -18 10 -22 23 -26 79 -2 38 -4 914
-3 1948 l1 1880 140 2 c77 2 298 4 492 5 307 3 352 1 356 -12 3 -13 2 -88 -2
-125 -1 -7 -125 -11 -378 -10 -208 0 -387 -1 -398 -3 -32 -6 -74 -73 -82 -133
-5 -30 -7 -812 -6 -1738 l3 -1685 27 -23 c57 -46 62 -47 748 -49 358 -1 681 2
720 7 81 10 111 32 101 73 -13 54 -17 54 -806 55 l-635 1 0 1667 c1 918 3
1673 7 1678 5 8 525 12 680 6 9 -1 32 -27 53 -60 l36 -59 82 -4 c45 -2 305 -3
577 -3 558 0 540 -2 575 73 13 27 28 45 43 49 12 3 173 6 357 7 l335 1 1 -630
c1 -1137 1 -1141 110 -1105 l39 13 -4 876 c-2 718 -6 883 -17 916 -22 62 -44
66 -469 72 -201 3 -368 8 -372 12 -3 3 -8 35 -10 71 l-3 65 110 -1 c61 -1 287
-3 503 -4 359 -1 392 -3 393 -18 1 -9 2 -127 4 -262 18 -1441 19 -1519 30
-1655 6 -78 22 -100 65 -90 43 11 63 40 71 102 8 68 3 1683 -6 1823 -8 129
-41 193 -115 223 -43 18 -91 19 -614 21 l-420 2 -28 54 c-15 30 -37 61 -49 68
-11 7 -62 17 -113 21 -91 8 -900 14 -907 7z m931 -356 l0 -220 -500 0 -500 0
0 220 0 220 500 0 500 0 0 -220z"/>
<path d="M2047 3669 c-67 -10 -99 -30 -153 -96 -21 -26 -41 -50 -44 -53 -4 -3
-58 -76 -120 -163 -63 -88 -123 -162 -134 -167 -12 -4 -52 -8 -91 -9 -128 -3
-175 -29 -216 -116 -16 -35 -18 -62 -16 -226 2 -185 2 -186 29 -221 44 -57 90
-80 171 -86 81 -5 89 -10 124 -67 41 -65 110 -122 176 -144 50 -17 67 -19 110
-10 106 22 227 109 243 174 4 15 17 30 31 36 13 5 147 9 296 9 l272 0 28 -49
c64 -115 147 -166 268 -165 62 1 84 5 125 28 67 36 123 91 146 143 19 43 19
43 71 44 125 1 171 23 223 104 16 25 19 51 21 192 2 239 -20 303 -113 334 -27
10 -88 19 -137 21 -48 3 -89 7 -91 9 -2 2 -54 74 -115 159 -62 85 -141 187
-176 227 -57 63 -71 73 -117 84 -63 15 -720 21 -811 8z m309 -311 l0 -178 -25
-1 c-31 -1 -248 0 -418 0 -68 1 -123 5 -123 10 0 12 130 204 185 274 25 32 56
62 68 67 12 5 87 8 167 7 l145 -2 1 -177z m446 176 c33 -6 45 -18 116 -113
120 -161 157 -222 141 -232 -8 -5 -68 -9 -134 -10 -269 -2 -385 0 -394 5 -6 4
-9 82 -9 181 l0 175 122 0 c66 0 138 -3 158 -6z m649 -526 c1 -66 -1 -321 -3
-323 -2 -2 -29 -5 -60 -8 -67 -5 -89 6 -115 61 -27 57 -95 118 -147 131 -156
39 -295 -16 -363 -143 l-28 -51 -290 -3 -290 -2 -27 48 c-41 73 -101 128 -160
148 -77 25 -192 15 -261 -23 -48 -27 -65 -46 -127 -142 -18 -26 -83 -36 -133
-19 l-28 10 2 156 c0 85 3 161 6 169 4 11 180 13 1014 13 l1009 0 1 -22z
m-1521 -298 c60 -43 81 -136 42 -189 -61 -84 -188 -78 -242 11 -26 43 -25 84
3 130 53 88 119 104 197 48z m1148 11 c33 -17 71 -69 78 -106 8 -47 -1 -79
-32 -110 -70 -70 -179 -56 -229 29 -34 57 -20 120 37 173 44 42 87 46 146 14z"/>
<path d="M3571 2218 c-194 -20 -387 -106 -534 -238 -76 -68 -96 -130 -55 -166
24 -23 64 -11 123 37 180 143 262 189 388 215 135 29 316 18 453 -27 170 -55
410 -286 473 -454 29 -78 39 -150 40 -310 2 -166 -10 -220 -74 -344 -113 -216
-285 -354 -516 -416 -157 -41 -257 -39 -419 11 -216 66 -398 216 -495 408 -28
55 -45 101 -42 110 11 27 42 32 188 32 l140 -1 -3 70 -3 70 -288 1 c-176 1
-290 -2 -293 -8 -4 -6 -6 -137 -6 -291 l0 -282 83 0 83 0 -3 105 c-1 57 -5
108 -7 112 -3 5 -2 8 3 8 4 0 26 -28 48 -63 138 -217 370 -376 630 -433 97
-21 280 -21 383 0 376 79 664 370 743 751 13 66 17 237 6 300 -39 227 -133
405 -291 552 -151 141 -354 232 -551 249 -110 10 -130 10 -204 2z"/>
<path d="M1397 1919 c-113 -6 -135 -19 -120 -66 17 -51 28 -52 638 -51 308 0
565 3 571 5 6 2 9 14 8 26 -1 12 -3 38 -3 58 l-1 36 -497 -1 c-274 -1 -542 -4
-596 -7z"/>
<path d="M1697 1584 c-1 -1 -85 -4 -187 -7 -102 -3 -192 -8 -201 -12 -54 -21
-43 -110 15 -120 111 -18 1093 -23 1138 -6 43 16 53 86 18 121 -17 17 -35 20
-117 22 -127 2 -664 3 -666 2z"/>
<path d="M2069 1213 c-8 -1 -171 -4 -364 -6 -390 -5 -420 -9 -430 -58 -9 -42
7 -56 75 -64 74 -8 1024 -8 1075 0 55 9 74 21 81 51 8 32 -18 62 -60 69 -30 5
-348 12 -377 8z"/>
</g>
</svg>
